<svg width="1140" height="650" viewBox="0 0 1140 650" fill="none" xmlns="http://www.w3.org/2000/svg">
<g opacity="0.05">
<path d="M1107.1 339C1086.6 326.8 1060.1 333.5 1047.9 354C1035.6 374.6 1014 386.9 990.002 386.9C966.002 386.9 944.402 374.6 932.102 354L731.302 16.5C686.202 -59.3 623.702 -101 555.202 -101C486.702 -101 424.102 -59.3 379.002 16.5L-35.8978 714C-43.8978 727.4 -43.9978 744 -36.3978 757.5C-28.6978 771 -14.3978 779.3 1.10216 779.3H416.602C431.802 779.3 445.902 771.3 453.702 758.2L562.202 575.7L613.102 661.3C658.302 737.4 720.902 779.2 789.202 779.2C857.602 779.2 920.102 737.3 965.402 661.3C965.402 661.3 1118.8 403.4 1122 398.1C1134.3 377.7 1127.6 351.2 1107.1 339ZM392.102 692.9H77.1022L453.202 60.6C482.102 12 518.302 -14.7 555.102 -14.7C591.902 -14.7 628.202 12 657.002 60.6L768.402 247.8C766.502 247.7 764.702 247.7 762.802 247.7C694.402 247.7 631.902 289.6 586.702 365.6L392.102 692.9ZM891.302 617.2C862.202 666 826.002 692.9 789.402 692.9C752.702 692.9 716.502 666 687.502 617.2L612.602 491.3L661.002 409.9C690.102 361.1 726.202 334.2 762.902 334.2C799.602 334.2 835.802 361.1 864.902 409.9C867.502 414.3 870.802 418.1 874.502 421.1C900.602 451.1 937.202 469.4 977.302 472.7L891.302 617.2Z" fill="white"/>
<path d="M1088.9 -101C1000.9 -101 929.302 -29.4 929.302 58.6C929.302 146.6 1000.9 218.2 1088.9 218.2C1176.9 218.2 1248.5 146.6 1248.5 58.6C1248.5 -29.4 1176.9 -101 1088.9 -101ZM1088.9 131.9C1048.5 131.9 1015.7 99.1 1015.7 58.7C1015.7 18.3 1048.5 -14.5 1088.9 -14.5C1129.3 -14.5 1162.1 18.3 1162.1 58.7C1162.1 99.1 1129.3 131.9 1088.9 131.9Z" fill="white"/>
</g>
</svg>
