<svg width="1140" height="662" viewBox="0 0 1140 662" fill="none" xmlns="http://www.w3.org/2000/svg">
<g opacity="0.25">
<path d="M999.102 344C978.602 331.8 952.102 338.5 939.902 359C927.602 379.6 906.002 391.9 882.002 391.9C858.002 391.9 836.402 379.6 824.102 359L623.302 21.5C578.202 -54.3 515.702 -96 447.202 -96C378.702 -96 316.102 -54.3 271.002 21.5L-143.898 719C-151.898 732.4 -151.998 749 -144.398 762.5C-136.698 776 -122.398 784.3 -106.898 784.3H308.602C323.802 784.3 337.902 776.3 345.702 763.2L454.202 580.7L505.102 666.3C550.302 742.4 612.902 784.2 681.202 784.2C749.602 784.2 812.102 742.3 857.402 666.3C857.402 666.3 1010.8 408.4 1014 403.1C1026.3 382.7 1019.6 356.2 999.102 344ZM284.102 697.9H-30.8978L345.202 65.6C374.102 17 410.302 -9.7 447.102 -9.7C483.902 -9.7 520.202 17 549.002 65.6L660.402 252.8C658.502 252.7 656.702 252.7 654.802 252.7C586.402 252.7 523.902 294.6 478.702 370.6L284.102 697.9ZM783.302 622.2C754.202 671 718.002 697.9 681.402 697.9C644.702 697.9 608.502 671 579.502 622.2L504.602 496.3L553.002 414.9C582.102 366.1 618.202 339.2 654.902 339.2C691.602 339.2 727.802 366.1 756.902 414.9C759.502 419.3 762.802 423.1 766.502 426.1C792.602 456.1 829.202 474.4 869.302 477.7L783.302 622.2Z" fill="white"/>
<path d="M980.902 -96C892.902 -96 821.302 -24.4 821.302 63.6C821.302 151.6 892.902 223.2 980.902 223.2C1068.9 223.2 1140.5 151.6 1140.5 63.6C1140.5 -24.4 1068.9 -96 980.902 -96ZM980.902 136.9C940.502 136.9 907.702 104.1 907.702 63.7C907.702 23.3 940.502 -9.5 980.902 -9.5C1021.3 -9.5 1054.1 23.3 1054.1 63.7C1054.1 104.1 1021.3 136.9 980.902 136.9Z" fill="white"/>
</g>
</svg>
