<svg width="16" height="16" viewBox="0 0 16 16" fill="none" xmlns="http://www.w3.org/2000/svg">
<path d="M1.33327 16C1.06956 15.9999 0.811784 15.9217 0.592535 15.7751C0.373286 15.6285 0.202405 15.4202 0.101495 15.1764C0.000585592 14.9327 -0.0258231 14.6645 0.0256088 14.4058C0.0770406 14.147 0.204004 13.9093 0.390447 13.7228L13.726 0.382189C13.9768 0.135775 14.3147 -0.00157892 14.6663 1.36967e-05C15.0178 0.00160632 15.3545 0.142016 15.6031 0.390693C15.8517 0.63937 15.992 0.976191 15.9936 1.32787C15.9952 1.67955 15.8579 2.01763 15.6116 2.26855L2.27609 15.6091C2.15243 15.7332 2.00547 15.8316 1.84367 15.8987C1.68187 15.9658 1.50841 16.0002 1.33327 16Z" fill="#999A9B"/>
<path d="M14.6667 16C14.4916 16.0002 14.3181 15.9658 14.1563 15.8987C13.9945 15.8316 13.8476 15.7332 13.7239 15.6091L0.388392 2.26855C0.142071 2.01763 0.00476933 1.67955 0.00636135 1.32787C0.00795336 0.976191 0.14831 0.63937 0.396893 0.390693C0.645475 0.142016 0.982168 0.00160632 1.33371 1.36967e-05C1.68526 -0.00157892 2.02321 0.135775 2.27403 0.382189L15.6096 13.7228C15.796 13.9093 15.923 14.147 15.9744 14.4058C16.0258 14.6645 15.9994 14.9327 15.8985 15.1764C15.7976 15.4202 15.6267 15.6285 15.4075 15.7751C15.1882 15.9217 14.9304 15.9999 14.6667 16Z" fill="#999A9B"/>
</svg>
