<svg width="842" height="210" viewBox="0 0 842 210" fill="none" xmlns="http://www.w3.org/2000/svg">
<path d="M62.7999 25.5L5.39986 137.1C-11.4001 169.7 13.3999 209.4 50.4999 209.4H152.8C170.7 209.4 186.9 199.6 195 183.9L252.4 72.3C269.2 39.7 244.4 0 207.3 0H105C87.0999 0 70.8999 9.8 62.7999 25.5Z" fill="url(#paint0_linear)"/>
<path d="M186.7 97.9C184.2 96.4 180.9 97.2 179.4 99.8C177.9 102.3 175.2 103.9 172.3 103.9C169.3 103.9 166.7 102.4 165.2 99.8L140.5 58.2C134.9 48.9 127.2 43.7 118.8 43.7C110.4 43.7 102.6 48.9 96.9997 58.2L45.8997 144.1C44.8997 145.7 44.8997 147.8 45.7997 149.4C46.6997 151.1 48.4997 152.1 50.3997 152.1H101.6C103.5 152.1 105.2 151.1 106.2 149.5L119.6 127L125.9 137.5C131.5 146.9 139.2 152 147.6 152C156 152 163.7 146.8 169.3 137.5C169.3 137.5 188.2 105.7 188.6 105.1C190.1 102.7 189.2 99.4 186.7 97.9ZM98.5997 141.5H59.7997L106.1 63.6C109.7 57.6 114.1 54.3 118.7 54.3C123.2 54.3 127.7 57.6 131.3 63.6L145 86.7C144.8 86.7 144.5 86.7 144.3 86.7C135.9 86.7 128.2 91.9 122.6 101.2L98.5997 141.5ZM160.1 132.2C156.5 138.2 152.1 141.5 147.5 141.5C143 141.5 138.5 138.2 134.9 132.2L125.7 116.7L131.7 106.7C135.3 100.7 139.7 97.4 144.3 97.4C148.8 97.4 153.3 100.7 156.9 106.7C157.2 107.2 157.6 107.7 158.1 108.1C161.3 111.8 165.8 114.1 170.8 114.5L160.1 132.2Z" fill="white"/>
<path d="M184.5 43.7C173.7 43.7 164.8 52.5 164.8 63.4C164.8 74.3 173.6 83 184.5 83C195.3 83 204.2 74.2 204.2 63.3C204.2 52.4 195.3 43.7 184.5 43.7ZM184.5 72.4C179.5 72.4 175.5 68.4 175.5 63.4C175.5 58.4 179.5 54.4 184.5 54.4C189.5 54.4 193.5 58.4 193.5 63.4C193.5 68.4 189.4 72.4 184.5 72.4Z" fill="white"/>
<path opacity="0.2" d="M119.6 127.1L125.8 116.7L135 132.2L125.6 137.1L119.6 127.1Z" fill="url(#paint1_linear)"/>
<path opacity="0.2" d="M164.4 98.8C164.7 99.1 164.9 99.4 165.1 99.7C165.1 99.7 165.1 99.8 165.2 99.8L151.7 77.1L139.6 77.6L145 86.7C152.4 87 159.2 91.2 164.4 98.8Z" fill="url(#paint2_linear)"/>
<path d="M351 142.8H305.3L296.3 164.2H278.8L316.5 79.2C318.6 74.6 323.2 71.6 328.2 71.6C333.3 71.6 337.9 74.6 339.9 79.2L377.7 164.3H359.9L351 142.8ZM345.4 129.3L328.2 88.8L311.1 129.3H345.4Z" fill="#123066"/>
<path d="M388 93.6H404.3V164.3H388V93.6Z" fill="#123066"/>
<path d="M534.5 100.5C539.6 105.7 542.2 113.4 542.2 123.7V164.2H525.9V125.8C525.9 119.6 524.5 115 521.9 111.8C519.2 108.7 515.3 107.1 510.3 107.1C504.8 107.1 500.4 108.9 497.1 112.6C493.8 116.3 492.1 121.5 492.1 128.3V164.2H475.8V125.8C475.8 119.6 474.4 115 471.8 111.8C469.1 108.7 465.2 107.1 460.2 107.1C454.6 107.1 450.2 108.9 447 112.5C443.7 116.1 442.1 121.4 442.1 128.3V164.2H425.8V100.9C425.8 96.8 429.1 93.5 433.2 93.5C437.7 93.5 441.4 97.2 441.4 101.7V102.5C444 99.3 447.3 96.9 451.2 95.2C455.1 93.5 459.5 92.7 464.3 92.7C469.5 92.7 474.2 93.7 478.2 95.7C482.2 97.7 485.4 100.6 487.8 104.5C490.7 100.8 494.4 97.9 498.9 95.8C503.4 93.7 508.4 92.7 513.9 92.7C522.5 92.8 529.4 95.3 534.5 100.5Z" fill="#123066"/>
<path d="M734.6 164.3L734.5 102.9L706.4 150.5C705.2 152.5 703 153.8 700.7 153.8C698.4 153.8 696.2 152.6 695 150.6L666.9 103.8V164.4H650.7V80.5C650.7 75.6 654.7 71.6 659.6 71.6C662.7 71.6 665.6 73.3 667.2 76L700.9 133.1L734 76C735.6 73.3 738.5 71.6 741.7 71.6C746.6 71.6 750.6 75.6 750.6 80.5L750.7 164.3H734.6Z" fill="#123066"/>
<path d="M837 134.2H787C788 139.4 790.5 143.5 794.5 146.6C798.5 149.6 803.6 151.2 809.6 151.2C817.3 151.2 823.6 148.6 828.5 143.5L837.2 153.7C834.1 157.5 830.1 160.4 825.3 162.3C820.5 164.2 815.1 165.2 809.1 165.2C801.4 165.2 794.7 163.7 788.9 160.6C783.1 157.5 778.6 153.2 775.4 147.7C772.2 142.2 770.6 135.9 770.6 129C770.6 122.1 772.1 115.9 775.2 110.4C778.3 104.9 782.6 100.6 788.1 97.5C793.6 94.4 799.8 92.9 806.6 92.9C813.4 92.9 819.5 94.4 824.8 97.5C830.2 100.5 834.3 104.8 837.3 110.3C840.3 115.8 841.8 122.2 841.8 129.4C841.9 132 839.7 134.2 837 134.2ZM793.4 110.7C789.8 113.8 787.6 118 786.8 123.2H826.3C825.6 118.1 823.5 113.9 819.9 110.8C816.3 107.6 811.9 106 806.6 106C801.4 106 797 107.6 793.4 110.7Z" fill="#123066"/>
<path d="M621.3 149.6H619.9H589.2L616 124.8C616.1 124.7 616.1 124.7 616.2 124.6C628.3 112.5 628.3 92.8 616.2 80.7C604.1 68.6 584.4 68.6 572.3 80.7C566.4 86.6 563.2 94.4 563.2 102.7C563.2 106.7 566.5 110 570.5 110C574.5 110 577.8 106.7 577.8 102.7C577.8 98.3 579.5 94.2 582.6 91.1C589 84.7 599.4 84.7 605.9 91.1C612.3 97.5 612.3 107.8 606 114.3L565.6 151.7C563.4 153.7 562.7 156.9 563.8 159.7C564.9 162.5 567.6 164.3 570.6 164.3H620H621.4H628.7V149.7H621.3V149.6Z" fill="#21B9A5"/>
<path d="M396.1 66.6C391.1 66.6 387 70.7 387 75.7C387 80.7 391.1 84.8 396.1 84.8C401.1 84.8 405.2 80.7 405.2 75.7C405.2 70.7 401.2 66.6 396.1 66.6Z" fill="#123066"/>
<defs>
<linearGradient id="paint0_linear" x1="55.8214" y1="38.0961" x2="201.709" y2="170.502" gradientUnits="userSpaceOnUse">
<stop stop-color="#73FFC7"/>
<stop offset="1" stop-color="#05A19A"/>
</linearGradient>
<linearGradient id="paint1_linear" x1="130.179" y1="134.649" x2="121.646" y2="119.744" gradientUnits="userSpaceOnUse">
<stop stop-color="white"/>
<stop offset="1"/>
</linearGradient>
<linearGradient id="paint2_linear" x1="146.608" y1="78.5627" x2="156.166" y2="95.3519" gradientUnits="userSpaceOnUse">
<stop stop-color="white"/>
<stop offset="1"/>
</linearGradient>
</defs>
</svg>
