<svg width="827" height="169" viewBox="0 0 827 169" fill="none" xmlns="http://www.w3.org/2000/svg">
<path d="M344.5 123.5H299.7L290.9 144.5H273.7L310.7 61.1C312.7 56.5 317.2 53.6 322.2 53.6C327.2 53.6 331.7 56.5 333.7 61.1L370.8 144.5H353.4L344.5 123.5ZM339 110.2L322.1 70.4L305.3 110.2H339Z" fill="#123066"/>
<path d="M380.8 75.1H396.8V144.5H380.8V75.1Z" fill="#123066"/>
<path d="M524.6 82C529.6 87.1 532.2 94.7 532.2 104.8V144.6H516.2V106.9C516.2 100.8 514.9 96.3 512.2 93.2C509.6 90.1 505.8 88.6 500.8 88.6C495.4 88.6 491.1 90.4 487.9 94C484.7 97.6 483 102.7 483 109.4V144.6H467V106.9C467 100.8 465.7 96.3 463 93.2C460.3 90.1 456.6 88.6 451.6 88.6C446.1 88.6 441.8 90.4 438.6 93.9C435.4 97.5 433.8 102.6 433.8 109.4V144.6H417.8V82.4C417.8 78.4 421 75.2 425 75.2C429.4 75.2 433 78.8 433 83.2V84C435.6 80.9 438.8 78.5 442.6 76.9C446.4 75.3 450.7 74.4 455.4 74.4C460.5 74.4 465.1 75.4 469 77.3C473 79.2 476.1 82.1 478.4 85.9C481.2 82.3 484.8 79.4 489.3 77.4C493.7 75.4 498.6 74.3 504 74.3C512.7 74.4 519.5 76.9 524.6 82Z" fill="#123066"/>
<path d="M720.8 144.5L720.7 84.2L693.1 130.9C691.9 132.9 689.8 134.1 687.5 134.1C685.2 134.1 683.1 132.9 681.9 130.9L654.4 85V144.5H638.5V62.3C638.5 57.5 642.4 53.6 647.2 53.6C650.3 53.6 653.1 55.2 654.7 57.9L687.8 113.9L720.2 58C721.8 55.3 724.6 53.7 727.7 53.7C732.5 53.7 736.4 57.6 736.4 62.4L736.5 144.6H720.8V144.5Z" fill="#123066"/>
<path d="M821.3 115H772.2C773.1 120.1 775.6 124.2 779.6 127.1C783.6 130.1 788.5 131.6 794.4 131.6C801.9 131.6 808.1 129.1 813 124.1L821.6 134.1C818.5 137.8 814.6 140.6 809.9 142.5C805.2 144.4 799.9 145.4 794 145.4C786.5 145.4 779.9 143.9 774.2 140.9C768.5 137.9 764.1 133.6 760.9 128.2C757.8 122.8 756.2 116.7 756.2 109.8C756.2 103 757.7 97 760.7 91.5C763.7 86.1 767.9 81.9 773.3 78.8C778.7 75.8 784.7 74.3 791.5 74.3C798.2 74.3 804.1 75.8 809.4 78.8C814.6 81.8 818.7 86 821.7 91.4C824.6 96.8 826.1 103.1 826.1 110.2C826.1 112.8 824 115 821.3 115ZM778.6 92C775.1 95.1 772.9 99.2 772.1 104.3H810.9C810.2 99.3 808.1 95.2 804.6 92.1C801.1 89 796.7 87.4 791.5 87.4C786.4 87.3 782.1 88.9 778.6 92Z" fill="#123066"/>
<path d="M609.6 130.1H608.2H578.1L604.4 105.8C604.5 105.7 604.5 105.7 604.6 105.6C616.5 93.7 616.5 74.4 604.6 62.5C592.7 50.6 573.4 50.6 561.5 62.5C555.7 68.3 552.6 75.9 552.6 84.1C552.6 88.1 555.8 91.3 559.8 91.3C563.8 91.3 567 88.1 567 84.1C567 79.8 568.7 75.7 571.7 72.7C578 66.4 588.2 66.4 594.5 72.7C600.8 79 600.8 89.1 594.6 95.4L554.9 132C552.7 134 552 137.1 553.1 139.9C554.2 142.7 556.8 144.5 559.8 144.5H608.3H609.7H616.9V130.1H609.6Z" fill="#123066"/>
<path d="M220.1 84.3C216.2 82 211.1 83.3 208.8 87.2C206.4 91.1 202.3 93.5 197.7 93.5C193.1 93.5 189 91.1 186.6 87.2L148.1 22.5C139.5 8 127.5 0 114.4 0C101.3 0 89.3002 8 80.6002 22.5L1.20017 156.1C-0.299825 158.7 -0.399825 161.8 1.10017 164.4C2.60017 167 5.30017 168.6 8.30017 168.6H87.9002C90.8002 168.6 93.5002 167.1 95.0002 164.6L115.8 129.7L125.6 146.1C134.3 160.7 146.2 168.7 159.3 168.7C172.4 168.7 184.4 160.7 193 146.1C193 146.1 222.4 96.7 223 95.7C225.3 91.7 224 86.6 220.1 84.3ZM83.2002 152.1H22.8002L94.9002 31C100.4 21.7 107.4 16.6 114.4 16.6C121.5 16.6 128.4 21.7 133.9 31L155.2 66.9C154.8 66.9 154.5 66.9 154.1 66.9C141 66.9 129 74.9 120.4 89.5L83.2002 152.1ZM178.8 137.6C173.2 147 166.3 152.1 159.3 152.1C152.3 152.1 145.3 147 139.8 137.6L125.4 113.5L134.7 97.9C140.3 88.5 147.2 83.4 154.2 83.4C161.2 83.4 168.2 88.5 173.7 97.9C174.2 98.7 174.8 99.5 175.5 100.1C180.5 105.8 187.5 109.4 195.2 110L178.8 137.6Z" fill="#4CC6F6"/>
<path d="M216.6 0C199.7 0 186 13.7 186 30.6C186 47.5 199.7 61.2 216.6 61.2C233.5 61.2 247.2 47.5 247.2 30.6C247.2 13.7 233.5 0 216.6 0ZM216.6 44.6C208.9 44.6 202.6 38.3 202.6 30.6C202.6 22.9 208.9 16.6 216.6 16.6C224.3 16.6 230.6 22.9 230.6 30.6C230.6 38.3 224.4 44.6 216.6 44.6Z" fill="#4CC6F6"/>
<path opacity="0.15" d="M115.8 129.6L125.4 113.5L139.7 137.6L125 145.2L115.8 129.6Z" fill="url(#paint0_linear)"/>
<path opacity="0.15" d="M185.5 85.7C185.9 86.1 186.3 86.6 186.6 87.1L186.7 87.2L165.7 51.8L146.9 52.6L155.3 66.7C166.8 67.3 177.3 73.9 185.5 85.7Z" fill="url(#paint1_linear)"/>
<path d="M388.8 48.7C383.9 48.7 379.9 52.7 379.9 57.6C379.9 62.5 383.9 66.5 388.8 66.5C393.7 66.5 397.7 62.5 397.7 57.6C397.7 52.7 393.7 48.7 388.8 48.7Z" fill="#123066"/>
<defs>
<linearGradient id="paint0_linear" x1="132.209" y1="141.405" x2="118.94" y2="118.228" gradientUnits="userSpaceOnUse">
<stop stop-color="#4CC6F6"/>
<stop offset="1"/>
</linearGradient>
<linearGradient id="paint1_linear" x1="157.756" y1="54.1928" x2="172.619" y2="80.2996" gradientUnits="userSpaceOnUse">
<stop stop-color="#4CC6F6"/>
<stop offset="1"/>
</linearGradient>
</defs>
</svg>
