<svg width="51" height="51" viewBox="0 0 51 51" fill="none" xmlns="http://www.w3.org/2000/svg">
<circle cx="25.5" cy="25.5" r="25.5" fill="url(#paint0_linear)"/>
<path d="M37.1371 26C36.6758 25.7232 36.067 25.8708 35.7902 26.3506C35.5135 26.8118 35.0153 27.107 34.4803 27.107C33.9268 27.107 33.447 26.8303 33.1703 26.3506L28.5946 18.6753C27.5614 16.941 26.1408 16 24.591 16C23.0411 16 21.602 16.941 20.5873 18.6753L11.1408 34.524C10.9563 34.8192 10.9563 35.2066 11.1223 35.5018C11.2884 35.8155 11.6205 36 11.971 36H21.4175C21.7681 36 22.0817 35.8155 22.2662 35.5203L24.7386 31.369L25.9009 33.3063C26.9341 35.0406 28.3548 35.9816 29.9046 35.9816C31.4544 35.9816 32.8751 35.0221 33.9083 33.3063C33.9083 33.3063 37.3954 27.4391 37.4692 27.3284C37.7459 26.8856 37.5983 26.2768 37.1371 26ZM20.8825 34.0443H13.7238L22.2662 19.6716C22.9304 18.5646 23.7422 17.9557 24.591 17.9557C25.4397 17.9557 26.2515 18.5646 26.9157 19.6716L29.4249 23.9336C29.388 23.9336 29.3327 23.9336 29.2958 23.9336C27.7459 23.9336 26.3253 24.893 25.2921 26.6089L20.8825 34.0443ZM32.2293 32.3284C31.5651 33.4354 30.7533 34.0443 29.9046 34.0443C29.0744 34.0443 28.2441 33.4354 27.5799 32.3284L25.8825 29.4686L26.9895 27.6236C27.6537 26.5166 28.4655 25.9077 29.3142 25.9077C30.1445 25.9077 30.9747 26.5166 31.6389 27.6236C31.6943 27.7159 31.7681 27.8081 31.8603 27.8819C32.4507 28.5646 33.281 28.9889 34.2035 29.0627L32.2293 32.3284Z" fill="white"/>
<path d="M36.7128 16C34.7202 16 33.0781 17.6236 33.0781 19.6347C33.0781 21.6458 34.7017 23.2694 36.7128 23.2694C38.7054 23.2694 40.3475 21.6458 40.3475 19.6347C40.3475 17.6236 38.7239 16 36.7128 16ZM36.7128 21.2952C35.7903 21.2952 35.0523 20.5572 35.0523 19.6347C35.0523 18.7122 35.7903 17.9742 36.7128 17.9742C37.6353 17.9742 38.3733 18.7122 38.3733 19.6347C38.3733 20.5572 37.6353 21.2952 36.7128 21.2952Z" fill="white"/>
<path opacity="0.1" d="M24.7385 31.3876L25.8824 29.4688L27.5983 32.3285L25.8455 33.2326L24.7385 31.3876Z" fill="url(#paint1_linear)"/>
<path opacity="0.1" d="M33.0227 26.1658C33.078 26.2211 33.1149 26.2765 33.1518 26.3319C33.1518 26.3319 33.1518 26.3503 33.1703 26.3503L30.6795 22.1621L28.447 22.2544L29.4433 23.9333C30.7902 23.9887 32.0448 24.7636 33.0227 26.1658Z" fill="url(#paint2_linear)"/>
<defs>
<linearGradient id="paint0_linear" x1="11.0386" y1="9.27842" x2="45.1428" y2="34.4278" gradientUnits="userSpaceOnUse">
<stop stop-color="#73FFC7"/>
<stop offset="1" stop-color="#05A19A"/>
</linearGradient>
<linearGradient id="paint1_linear" x1="26.6986" y1="32.7783" x2="25.1242" y2="30.0282" gradientUnits="userSpaceOnUse">
<stop stop-color="white"/>
<stop offset="1"/>
</linearGradient>
<linearGradient id="paint2_linear" x1="29.7298" y1="22.4299" x2="31.4933" y2="25.5275" gradientUnits="userSpaceOnUse">
<stop stop-color="white"/>
<stop offset="1"/>
</linearGradient>
</defs>
</svg>
