<svg width="56" height="56" viewBox="0 0 56 56" fill="none" xmlns="http://www.w3.org/2000/svg">
<path d="M0 10C0 4.47715 4.47715 0 10 0H56L0 56V10Z" fill="#FF9F1D"/>
<path d="M14.773 19.2297C14.773 18.4293 14.9479 17.7673 15.2977 17.244C15.6627 16.7206 16.1874 16.1433 16.8717 15.5122C17.3736 15.0504 17.7386 14.6656 17.9667 14.3577C18.21 14.0344 18.3317 13.6727 18.3317 13.2724C18.3317 12.7029 18.1036 12.2565 17.6473 11.9332C17.2063 11.5945 16.6132 11.4252 15.868 11.4252C15.1532 11.4252 14.5145 11.5792 13.9518 11.887C13.4043 12.1795 12.9405 12.5951 12.5603 13.1339L9.80005 11.4945C10.4388 10.5093 11.298 9.74732 12.3778 9.20855C13.4728 8.66978 14.7654 8.40039 16.2558 8.40039C18.0047 8.40039 19.4039 8.77753 20.4532 9.53181C21.5178 10.2861 22.05 11.3329 22.05 12.6721C22.05 13.3032 21.9436 13.8574 21.7307 14.3346C21.533 14.8118 21.282 15.2197 20.9779 15.5584C20.6889 15.8816 20.3087 16.2588 19.8373 16.6898C19.2746 17.1978 18.864 17.6288 18.6054 17.9829C18.3469 18.3215 18.2176 18.7371 18.2176 19.2297H14.773ZM16.5068 25.0254C15.8832 25.0254 15.3586 24.8253 14.9327 24.425C14.5221 24.0094 14.3168 23.5091 14.3168 22.9242C14.3168 22.3392 14.5221 21.8543 14.9327 21.4695C15.3433 21.0693 15.868 20.8691 16.5068 20.8691C17.1455 20.8691 17.6702 21.0693 18.0808 21.4695C18.4914 21.8543 18.6967 22.3392 18.6967 22.9242C18.6967 23.5091 18.4838 24.0094 18.058 24.425C17.6473 24.8253 17.1303 25.0254 16.5068 25.0254Z" fill="white"/>
</svg>
