<svg width="1224" height="624" viewBox="0 0 1224 624" fill="none" xmlns="http://www.w3.org/2000/svg">
<path d="M1282.22 313.972C1259.34 300.358 1229.77 307.835 1216.16 330.709C1202.44 353.696 1178.33 367.421 1151.55 367.421C1124.77 367.421 1100.67 353.696 1086.95 330.709L862.885 -45.8882C812.56 -130.469 742.82 -177 666.385 -177C589.949 -177 520.098 -130.469 469.773 -45.8882L6.80907 732.413C-2.11769 747.366 -2.22927 765.889 6.25114 780.953C14.8431 796.017 30.7997 805.278 48.0953 805.278H511.729C528.69 805.278 544.423 796.351 553.127 781.734L674.196 578.092L730.992 673.608C781.428 758.524 851.28 805.167 927.492 805.167C1003.82 805.167 1073.56 758.413 1124.1 673.608C1124.1 673.608 1295.27 385.832 1298.85 379.918C1312.57 357.155 1305.09 327.585 1282.22 313.972ZM484.391 708.869H132.9L552.569 3.32051C584.817 -50.9095 625.21 -80.7026 666.273 -80.7026C707.336 -80.7026 747.841 -50.9095 779.978 3.32051L904.283 212.207C902.163 212.095 900.154 212.095 898.034 212.095C821.71 212.095 751.97 258.849 701.534 343.653L484.391 708.869ZM1041.42 624.4C1008.95 678.853 968.556 708.869 927.716 708.869C886.764 708.869 846.371 678.853 814.011 624.4L730.434 483.915L784.441 393.085C816.912 338.632 857.194 308.616 898.146 308.616C939.097 308.616 979.491 338.632 1011.96 393.085C1014.86 397.995 1018.55 402.235 1022.67 405.583C1051.8 439.058 1092.64 459.478 1137.38 463.16L1041.42 624.4Z" fill="white" fill-opacity="0.05"/>
</svg>
