<svg width="20" height="12" viewBox="0 0 20 12" fill="none" xmlns="http://www.w3.org/2000/svg">
<path d="M10 3C11.66 3 13 4.34 13 6C13 7.66 11.66 9 10 9C8.34 9 7 7.66 7 6C7 4.34 8.34 3 10 3Z" fill="#888888"/>
<path fill-rule="evenodd" clip-rule="evenodd" d="M20 6.00002C20 6.00002 15.5294 0 10 0C4.47062 0 0 5.99998 0 5.99998C0 5.99998 4.47057 12 10 12C15.5294 12 20 6.00002 20 6.00002ZM5.76465 5.99999C5.76465 8.28464 7.67056 10.1539 9.99995 10.1539C12.3294 10.1539 14.2352 8.28464 14.2352 5.99999C14.2352 3.71535 12.3294 1.84613 9.99995 1.84613C7.67051 1.84613 5.76465 3.71535 5.76465 5.99999Z" fill="#888888"/>
</svg>
